<svg width="14" height="13" viewBox="0 0 14 13" fill="none" xmlns="http://www.w3.org/2000/svg">
<path d="M7.97119 6.51233L12.8149 11.3561C12.9451 11.4863 12.9451 11.6295 12.8149 11.7858L11.9165 12.6842C11.7603 12.8144 11.617 12.8144 11.4868 12.6842L10.6665 11.8248L6.64307 7.84045L1.79932 12.6842C1.66911 12.8144 1.52588 12.8144 1.36963 12.6842L0.471191 11.7858C0.340983 11.6295 0.340983 11.4863 0.471191 11.3561L5.31494 6.51233L0.471191 1.66858C0.340983 1.53837 0.340983 1.39514 0.471191 1.23889L1.36963 0.340454C1.52588 0.210246 1.66911 0.210246 1.79932 0.340454L6.64307 5.1842L11.4868 0.340454C11.617 0.210246 11.7603 0.210246 11.9165 0.340454L12.8149 1.23889C12.9451 1.39514 12.9451 1.53837 12.8149 1.66858L11.9556 2.48889L7.97119 6.51233Z" fill="black"/>
</svg>
