<svg width="20" height="15" viewBox="0 0 18 15" fill="none" xmlns="http://www.w3.org/2000/svg">
<path fill-rule="evenodd" clip-rule="evenodd" d="M14.572 1.96181H12.8044C12.6369 0.85663 11.5159 0 10.1625 0H7.83752C6.48414 0 5.36308 0.85587 5.1956 1.96105L3.43702 1.96181C1.54157 1.96181 0 3.26006 0 4.8555V7.49076C0 7.6823 0.113457 7.86093 0.303452 7.96658C2.15748 8.99955 4.35188 9.68744 6.64892 9.95728C6.99019 9.99984 7.30355 9.8197 7.3936 9.54302C7.5944 8.92658 8.23822 8.51233 8.9955 8.51233C9.74467 8.51233 10.3948 8.93571 10.5767 9.53998C10.6532 9.79538 10.9261 9.9702 11.2304 9.9702C11.2619 9.9702 11.2925 9.96868 11.3241 9.96488C13.6364 9.69504 15.8407 9.00335 17.6974 7.96658C17.8865 7.86017 18 7.6823 18 7.49076V4.8555C18 3.26006 16.462 1.96181 14.572 1.96181ZM16.6493 7.17911C15.1699 7.95517 13.4644 8.49864 11.6689 8.76543C11.1755 7.92401 10.149 7.37218 8.99549 7.37218C7.85101 7.37218 6.82 7.92249 6.31305 8.75859C4.52835 8.49332 2.8283 7.95289 1.35066 7.17911V4.85549C1.35066 3.88865 2.28623 3.10195 3.43791 3.10195L5.84931 3.10043C6.0294 3.10043 6.20049 3.04038 6.32745 2.93321C6.45352 2.82527 6.52465 2.68085 6.52465 2.52959L6.52375 2.24836C6.52375 1.63724 7.11355 1.14014 7.83751 1.14014H10.1625C10.7685 1.14014 11.2808 1.48902 11.4312 1.9618H8.99999C8.6272 1.9618 8.32465 2.21719 8.32465 2.53188C8.32465 2.84656 8.6272 3.10195 8.99999 3.10195H14.572C15.7173 3.10195 16.6493 3.88865 16.6493 4.85549V7.17911ZM9.67512 10.1726V11.1562C9.67512 11.4709 9.37257 11.7263 8.99978 11.7263C8.627 11.7263 8.32444 11.4709 8.32444 11.1562V10.1726C8.32444 9.85793 8.627 9.60254 8.99978 9.60254C9.37257 9.60254 9.67512 9.85793 9.67512 10.1726ZM17.3021 9.67236C16.9483 9.67236 16.6664 9.90495 16.6394 10.1968C16.6394 10.1968 16.5007 11.5262 16.4719 11.9458C16.4386 12.4102 16.2153 12.9157 15.9028 13.2327C15.4625 13.6811 14.9745 13.8567 14.1623 13.8582C13.6292 13.859 10.7541 13.8597 8.58218 13.8597C8.20849 13.8597 7.90594 14.1151 7.90594 14.4298C7.90594 14.7445 8.20849 14.9999 8.58128 14.9999C10.6775 14.9999 13.6616 14.9991 14.165 14.9984C15.3662 14.9961 16.2495 14.6662 16.9429 13.9608C17.4408 13.4546 17.7686 12.7272 17.8199 12.0142C17.8403 11.721 17.9101 10.9602 17.949 10.5366C17.9649 10.3628 17.9757 10.2458 17.9757 10.2409C17.9757 9.927 17.674 9.67236 17.3021 9.67236ZM3.83792 13.8582C4.01441 13.859 4.37999 13.859 4.85993 13.859C5.23272 13.859 5.53797 14.1144 5.53797 14.4291C5.53797 14.7437 5.23181 14.9991 4.85813 14.9991C4.37188 14.9991 4.01711 14.9991 3.83612 14.9984C2.63402 14.9961 1.75067 14.6662 1.05733 13.9601C0.560279 13.4546 0.231615 12.7272 0.18119 12.0142C0.160423 11.7252 0.0921578 10.9822 0.0529277 10.5552C0.0360243 10.3713 0.0245115 10.246 0.0245115 10.2409C0.0245115 9.927 0.326162 9.67236 0.698048 9.67236C1.05193 9.67236 1.33287 9.90495 1.36078 10.1976C1.36078 10.1976 1.49945 11.527 1.52916 11.9458C1.56248 12.4102 1.78489 12.9157 2.09735 13.2319C2.53857 13.6819 3.02661 13.8567 3.83792 13.8582Z" fill="#EEEEEE"/>
</svg>
