<svg width="20" height="15" viewBox="0 0 17 18" fill="none" xmlns="http://www.w3.org/2000/svg">
<path d="M13.1764 16.9357C13.0718 16.9383 12.9681 16.9119 12.8771 16.8592L8.50871 14.5585L4.66235 16.6296C4.0349 16.9697 3.2493 16.7368 2.90921 16.1084C2.90496 16.1008 2.90071 16.0931 2.89646 16.0846C2.76298 15.8219 2.71622 15.5252 2.76213 15.2344L3.51031 10.8184L0.383233 7.65223C-0.127744 7.1251 -0.127744 6.28679 0.383233 5.75881C0.582183 5.54966 0.845749 5.41447 1.13142 5.37536L5.41904 4.7241L7.32607 0.751059C7.62279 0.104897 8.38713 -0.179074 9.03415 0.117651C9.31472 0.246033 9.53917 0.471339 9.66755 0.751059L11.5831 4.73771L15.8852 5.39662C16.2329 5.44848 16.5449 5.64063 16.749 5.92715C17.1299 6.47469 17.0721 7.21438 16.6112 7.69645L13.4986 10.8252L13.9322 13.205C13.9926 13.5621 13.7571 13.903 13.4008 13.9702C13.0505 14.0331 12.7156 13.8001 12.6526 13.449L12.2114 11.0692C12.1374 10.6331 12.276 10.1876 12.5855 9.87214L15.7058 6.72125L11.4037 6.05383C10.9675 5.98327 10.5977 5.69419 10.4234 5.28864L8.50871 1.319L6.57023 5.35156C6.39594 5.75796 6.02609 6.04618 5.58993 6.11675L1.30231 6.76801L4.39964 9.9138C4.70826 10.2241 4.84685 10.6637 4.77373 11.0947L4.02554 15.5107L7.87105 13.4481C8.25195 13.2339 8.71702 13.2339 9.09791 13.4481L13.4604 15.7488C13.7265 15.8942 13.8617 16.2011 13.7894 16.4961C13.7231 16.7912 13.4629 17.0012 13.1611 17.0063L13.1764 16.9357Z" fill="#EEEEEE"/>
</svg>
